<?xml version="1.0" encoding="UTF-8"?>
<svg id="Layer_1" data-name="Layer 1" xmlns="http://www.w3.org/2000/svg" viewBox="0 0 283.46 283.46">
  <defs>
    <style>
      .cls-1 {
        fill: #4eb1a6;
      }

      .cls-1, .cls-2, .cls-3 {
        stroke-width: 0px;
      }

      .cls-2 {
        fill: #f9f7c3;
      }

      .cls-3 {
        fill: #1a936f;
      }
    </style>
  </defs>
  <g>
    <g>
      <path class="cls-3" d="m57.97,152.7l-.68-16.29c.11-.23.06-.43-.17-.59-.23-.17-.45-.25-.68-.25h-20.87c-.68,0-1.02.28-1.02.85l-4.75,16.29c-.34,1.25-1.13,1.87-2.38,1.87H8.25c-1.36,0-1.81-.73-1.36-2.21L45.07,37.64c.34-1.24,1.13-1.87,2.38-1.87h22.23c1.13,0,1.81.62,2.03,1.87l9.84,114.72v.51c0,1.13-.62,1.7-1.87,1.7h-19.85c-1.25,0-1.87-.62-1.87-1.87Zm-17.14-35.64h14.76c.56,0,.85-.28.85-.85l-2.04-46.33c-.11-.34-.28-.51-.51-.51s-.4.17-.51.51l-13.07,46.33c-.23.57-.06.85.51.85Z"/>
      <path class="cls-3" d="m154.1,145.91c-6.85,5.77-15.25,8.65-25.2,8.65h-31.06c-.57,0-1.02-.2-1.36-.59-.34-.39-.45-.87-.34-1.44l14.08-114.72c.11-.57.37-1.04.76-1.44s.87-.59,1.44-.59h27.49c9.95,0,17.68,2.24,23.16,6.7,5.49,4.47,8.23,11.12,8.23,19.94,0,1.13-.11,3.05-.34,5.77-1.36,11.09-6.11,19.23-14.26,24.44-.45.34-.51.68-.17,1.02,6.56,5.2,9.84,12.62,9.84,22.23,0,1.02-.11,2.77-.34,5.26-1.13,10.75-5.12,19.01-11.96,24.78Zm-15.36-16.12c2.38-2.72,3.9-6.56,4.58-11.54.11-.79.17-1.98.17-3.56,0-3.96-.85-7.07-2.55-9.33-1.7-2.26-4.07-3.4-7.13-3.4h-7.47c-.45,0-.79.28-1.02.85l-3.56,30.21c-.23.57,0,.85.68.85h7.3c3.62,0,6.62-1.36,8.99-4.07Zm-7.64-72.63l-3.39,26.64c0,.57.22.85.68.85h5.94c4.3,0,7.66-1.53,10.1-4.58,2.43-3.05,3.65-7.3,3.65-12.73,0-3.62-.88-6.36-2.63-8.23-1.75-1.87-4.27-2.8-7.55-2.8h-5.94c-.57,0-.85.28-.85.85Z"/>
      <path class="cls-3" d="m187.96,148.37c-5.21-5.03-7.81-11.85-7.81-20.45,0-1.13.11-2.94.34-5.43l6.79-54.98c1.13-10.07,5.06-18.1,11.79-24.1,6.73-6,15.08-8.99,25.03-8.99,9.05,0,16.18,2.52,21.38,7.55,5.2,5.03,7.81,11.85,7.81,20.45,0,1.13-.11,2.83-.34,5.09l-.34,1.87c-.11.57-.37,1.05-.76,1.44s-.88.59-1.44.59l-19.35.85c-1.25,0-1.81-.62-1.7-1.87l.51-4.41c.11-.45.17-1.13.17-2.03,0-2.72-.76-4.89-2.29-6.54-1.53-1.64-3.59-2.46-6.19-2.46-2.83,0-5.26,1.02-7.3,3.05s-3.28,4.7-3.73,7.98l-7.13,58.55c-.11.45-.17,1.08-.17,1.87,0,2.72.76,4.9,2.29,6.54,1.53,1.64,3.53,2.46,6.02,2.46,2.94,0,5.43-.99,7.47-2.97,2.04-1.98,3.28-4.61,3.73-7.89l.51-4.58c.11-.56.37-1.04.76-1.44s.87-.59,1.44-.59l19.18.85c.57,0,1.02.2,1.36.59.34.4.45.88.34,1.44l-.17,1.7c-1.25,10.18-5.26,18.3-12.05,24.35-6.79,6.05-15.1,9.08-24.95,9.08-8.94,0-16.01-2.52-21.21-7.55Z"/>
    </g>
    <g>
      <path class="cls-3" d="m38.9,201.14c.18.22.24.48.18.79l-.83,6.93c-.06.31-.2.57-.42.78-.22.22-.48.32-.78.32h-4.99c-.31,0-.46.15-.46.46l-4.53,36.77c-.06.31-.2.57-.42.78-.22.22-.48.32-.79.32h-10.44c-.31,0-.55-.11-.74-.32-.18-.21-.25-.48-.18-.78l4.53-36.77c0-.31-.12-.46-.37-.46h-2.68c-.68,0-1.01-.37-1.01-1.11l.92-6.93c.06-.31.2-.57.42-.79.22-.22.48-.32.79-.32h2.68c.31,0,.46-.15.46-.46l.37-2.5c.68-5.54,2.51-9.38,5.5-11.5,2.99-2.12,7.41-3.12,13.26-3h.37c.31,0,.55.11.74.32s.24.48.18.78l-.92,7.39c-.06.31-.22.57-.46.79-.25.22-.52.32-.83.32h-.18c-3.02.06-4.77,1.97-5.27,5.73l-.18,1.66c0,.31.12.46.37.46h4.99c.31,0,.55.11.74.32Zm.18,46.84c-.18-.21-.25-.48-.18-.78l5.54-45.27c.06-.31.2-.57.41-.79.22-.22.48-.32.79-.32h10.53c.31,0,.55.11.74.32.19.22.25.48.19.79l-5.54,45.27c-.06.31-.2.57-.42.78-.22.22-.48.32-.78.32h-10.53c-.31,0-.55-.11-.74-.32Zm7.85-54.28c-1.17-1.17-1.75-2.65-1.75-4.43,0-2.46.77-4.48,2.31-6.05,1.54-1.57,3.45-2.36,5.73-2.36,1.91,0,3.42.55,4.53,1.66s1.66,2.59,1.66,4.43c0,2.34-.78,4.34-2.36,6.01-1.57,1.66-3.43,2.49-5.59,2.49-1.85,0-3.36-.58-4.53-1.75Z"/>
      <path class="cls-3" d="m86.25,209.64c-.22.22-.48.32-.78.32h-5.08c-.13,0-.23.05-.32.14s-.14.2-.14.32l-2.68,21.99c-.06.31-.09.74-.09,1.29,0,1.29.29,2.19.88,2.68.59.49,1.43.71,2.54.65h.65c.31,0,.55.11.74.32.19.22.25.48.19.79l-1.11,9.05c-.06.31-.2.57-.42.78s-.48.32-.79.32h-3.6c-3.94,0-6.93-.6-8.96-1.8-2.03-1.2-3.05-3.47-3.05-6.79,0-.43.06-1.2.18-2.31l3.33-26.98c0-.31-.13-.46-.37-.46h-2.95c-.31,0-.56-.11-.74-.32-.18-.21-.25-.48-.18-.78l.83-6.93c.06-.31.2-.57.41-.79.22-.22.48-.32.79-.32h2.96c.31,0,.46-.15.46-.46l1.29-10.26c.06-.31.2-.57.42-.78s.48-.32.78-.32h10.07c.31,0,.55.11.74.32.18.22.24.48.18.78l-1.29,10.26c0,.31.15.46.46.46h4.99c.31,0,.55.11.74.32.18.22.24.48.18.79l-.83,6.93c-.06.31-.2.57-.42.78Z"/>
      <path class="cls-3" d="m124.78,203.18c1.75,2.06,2.63,5.04,2.63,8.92,0,1.23-.09,2.5-.28,3.79l-3.79,31.32c-.06.31-.2.57-.41.78s-.48.32-.79.32h-10.53c-.31,0-.55-.11-.74-.32-.19-.21-.25-.48-.19-.78l3.7-30.31c.06-.31.09-.77.09-1.38,0-2.83-1.14-4.25-3.42-4.25-1.36,0-2.46.51-3.33,1.52-.86,1.02-1.42,2.45-1.66,4.3l-3.7,30.12c-.06.31-.2.57-.41.78s-.48.32-.79.32h-10.53c-.31,0-.55-.11-.74-.32-.19-.21-.25-.48-.19-.78l5.54-45.27c.06-.31.2-.57.42-.79s.48-.32.78-.32h10.53c.31,0,.55.11.74.32.18.22.24.48.18.79l-.18,1.75v.09c0,.13.08.17.23.14.15-.03.32-.14.51-.32,2.28-2.34,5.08-3.51,8.41-3.51,3.51,0,6.14,1.03,7.9,3.1Z"/>
      <path class="cls-3" d="m167.65,228.31c-.22.22-.48.32-.78.32h-19.77c-.12,0-.23.05-.32.14s-.14.2-.14.32l-.46,3.42c-.19,1.54.08,2.82.78,3.83.71,1.02,1.68,1.52,2.91,1.52,1.11,0,2.08-.38,2.91-1.15.83-.77,1.43-1.74,1.8-2.91.24-.62.68-.92,1.29-.92l10.26.55c.31,0,.54.11.69.32.15.22.2.51.14.88-.99,4.74-3.02,8.33-6.1,10.76-3.08,2.43-7.21,3.65-12.38,3.65-4.87,0-8.63-1.14-11.27-3.42-2.65-2.28-3.97-5.48-3.97-9.61,0-.55.06-1.39.18-2.5l2.22-17.92c.55-4.68,2.52-8.44,5.91-11.27,3.39-2.83,7.7-4.25,12.93-4.25,4.81,0,8.55,1.19,11.23,3.56,2.68,2.37,4.02,5.59,4.02,9.65,0,.43-.06,1.2-.18,2.31l-1.48,11.92c-.06.31-.2.57-.42.79Zm-17.78-15.57c-.92.99-1.48,2.25-1.66,3.79l-.46,3.6c0,.31.12.46.37.46h7.76c.12,0,.23-.05.32-.14.09-.09.14-.2.14-.32l.46-3.6c.18-1.54-.08-2.8-.79-3.79-.71-.98-1.68-1.48-2.91-1.48s-2.31.5-3.23,1.48Z"/>
      <path class="cls-3" d="m178.18,245.77c-2.68-2.12-4.02-5.03-4.02-8.73,0-.8.03-1.42.09-1.85l.09-.65c.06-.31.2-.57.42-.79.21-.22.48-.32.78-.32h9.89c.31,0,.55.11.74.32.19.22.25.48.19.79v.28c-.19,1.29.12,2.36.92,3.19.8.83,1.85,1.25,3.14,1.25s2.34-.42,3.14-1.25c.8-.83,1.2-1.86,1.2-3.1,0-1.17-.52-2.11-1.57-2.82-1.05-.71-2.22-1.31-3.51-1.8-1.29-.49-2.16-.83-2.59-1.02-2.83-1.11-5.21-2.62-7.11-4.53-1.91-1.91-2.87-4.59-2.87-8.04,0-.86.03-1.54.09-2.03.55-4.49,2.43-8.04,5.64-10.62,3.2-2.59,7.18-3.88,11.92-3.88s8.12,1.14,10.67,3.42c2.56,2.28,3.83,5.39,3.83,9.33,0,.55-.06,1.32-.18,2.31-.06.31-.2.57-.42.78-.22.22-.48.32-.78.32h-9.61c-.31,0-.55-.11-.74-.32-.18-.21-.25-.48-.18-.78l.09-.74c.12-1.23-.14-2.23-.79-3-.65-.77-1.56-1.15-2.73-1.15-1.42,0-2.53.48-3.33,1.43-.8.96-1.2,2.05-1.2,3.28,0,1.36.54,2.4,1.62,3.14,1.08.74,2.75,1.57,5.03,2.49,3.45,1.36,6.24,2.93,8.36,4.71,2.12,1.79,3.19,4.4,3.19,7.85,0,4.8-1.71,8.63-5.13,11.46-3.42,2.83-7.84,4.25-13.26,4.25-4.68,0-8.36-1.06-11.04-3.19Z"/>
      <path class="cls-3" d="m216.8,245.77c-2.68-2.12-4.02-5.03-4.02-8.73,0-.8.03-1.42.09-1.85l.09-.65c.06-.31.2-.57.42-.79.21-.22.48-.32.78-.32h9.89c.31,0,.55.11.74.32.19.22.25.48.19.79v.28c-.19,1.29.12,2.36.92,3.19.8.83,1.85,1.25,3.14,1.25s2.34-.42,3.14-1.25c.8-.83,1.2-1.86,1.2-3.1,0-1.17-.52-2.11-1.57-2.82-1.05-.71-2.22-1.31-3.51-1.8-1.29-.49-2.16-.83-2.59-1.02-2.83-1.11-5.21-2.62-7.11-4.53-1.91-1.91-2.87-4.59-2.87-8.04,0-.86.03-1.54.09-2.03.55-4.49,2.43-8.04,5.64-10.62,3.2-2.59,7.18-3.88,11.92-3.88s8.12,1.14,10.67,3.42c2.56,2.28,3.83,5.39,3.83,9.33,0,.55-.06,1.32-.18,2.31-.06.31-.2.57-.42.78-.22.22-.48.32-.78.32h-9.61c-.31,0-.55-.11-.74-.32-.18-.21-.25-.48-.18-.78l.09-.74c.12-1.23-.14-2.23-.79-3-.65-.77-1.56-1.15-2.73-1.15-1.42,0-2.53.48-3.33,1.43-.8.96-1.2,2.05-1.2,3.28,0,1.36.54,2.4,1.62,3.14,1.08.74,2.75,1.57,5.03,2.49,3.45,1.36,6.24,2.93,8.36,4.71,2.12,1.79,3.19,4.4,3.19,7.85,0,4.8-1.71,8.63-5.13,11.46-3.42,2.83-7.84,4.25-13.26,4.25-4.68,0-8.36-1.06-11.04-3.19Z"/>
    </g>
  </g>
  <g>
    <g>
      <path class="cls-1" d="m69.69,152.7l-.68-16.29c.11-.23.06-.43-.17-.59-.23-.17-.45-.25-.68-.25h-20.87c-.68,0-1.02.28-1.02.85l-4.75,16.29c-.34,1.25-1.13,1.87-2.38,1.87h-19.18c-1.36,0-1.81-.73-1.36-2.21L56.8,37.64c.34-1.24,1.13-1.87,2.38-1.87h22.23c1.13,0,1.81.62,2.03,1.87l9.84,114.72v.51c0,1.13-.62,1.7-1.87,1.7h-19.85c-1.25,0-1.87-.62-1.87-1.87Zm-17.14-35.64h14.76c.56,0,.85-.28.85-.85l-2.04-46.33c-.11-.34-.28-.51-.51-.51s-.4.17-.51.51l-13.07,46.33c-.23.57-.06.85.51.85Z"/>
      <path class="cls-1" d="m165.83,145.91c-6.85,5.77-15.25,8.65-25.2,8.65h-31.06c-.57,0-1.02-.2-1.36-.59-.34-.39-.45-.87-.34-1.44l14.08-114.72c.11-.57.37-1.04.76-1.44s.87-.59,1.44-.59h27.49c9.95,0,17.68,2.24,23.16,6.7,5.49,4.47,8.23,11.12,8.23,19.94,0,1.13-.11,3.05-.34,5.77-1.36,11.09-6.11,19.23-14.26,24.44-.45.34-.51.68-.17,1.02,6.56,5.2,9.84,12.62,9.84,22.23,0,1.02-.11,2.77-.34,5.26-1.13,10.75-5.12,19.01-11.96,24.78Zm-15.36-16.12c2.38-2.72,3.9-6.56,4.58-11.54.11-.79.17-1.98.17-3.56,0-3.96-.85-7.07-2.55-9.33-1.7-2.26-4.07-3.4-7.13-3.4h-7.47c-.45,0-.79.28-1.02.85l-3.56,30.21c-.23.57,0,.85.68.85h7.3c3.62,0,6.62-1.36,8.99-4.07Zm-7.64-72.63l-3.39,26.64c0,.57.22.85.68.85h5.94c4.3,0,7.66-1.53,10.1-4.58,2.43-3.05,3.65-7.3,3.65-12.73,0-3.62-.88-6.36-2.63-8.23-1.75-1.87-4.27-2.8-7.55-2.8h-5.94c-.57,0-.85.28-.85.85Z"/>
      <path class="cls-1" d="m199.68,148.37c-5.21-5.03-7.81-11.85-7.81-20.45,0-1.13.11-2.94.34-5.43l6.79-54.98c1.13-10.07,5.06-18.1,11.79-24.1,6.73-6,15.08-8.99,25.03-8.99,9.05,0,16.18,2.52,21.38,7.55,5.2,5.03,7.81,11.85,7.81,20.45,0,1.13-.11,2.83-.34,5.09l-.34,1.87c-.11.57-.37,1.05-.76,1.44s-.88.59-1.44.59l-19.35.85c-1.25,0-1.81-.62-1.7-1.87l.51-4.41c.11-.45.17-1.13.17-2.03,0-2.72-.76-4.89-2.29-6.54-1.53-1.64-3.59-2.46-6.19-2.46-2.83,0-5.26,1.02-7.3,3.05s-3.28,4.7-3.73,7.98l-7.13,58.55c-.11.45-.17,1.08-.17,1.87,0,2.72.76,4.9,2.29,6.54,1.53,1.64,3.53,2.46,6.02,2.46,2.94,0,5.43-.99,7.47-2.97,2.04-1.98,3.28-4.61,3.73-7.89l.51-4.58c.11-.56.37-1.04.76-1.44s.87-.59,1.44-.59l19.18.85c.57,0,1.02.2,1.36.59.34.4.45.88.34,1.44l-.17,1.7c-1.25,10.18-5.26,18.3-12.05,24.35-6.79,6.05-15.1,9.08-24.95,9.08-8.94,0-16.01-2.52-21.21-7.55Z"/>
    </g>
    <g>
      <path class="cls-1" d="m50.62,201.14c.18.22.24.48.18.79l-.83,6.93c-.06.31-.2.57-.42.78-.22.22-.48.32-.78.32h-4.99c-.31,0-.46.15-.46.46l-4.53,36.77c-.06.31-.2.57-.42.78-.22.22-.48.32-.79.32h-10.44c-.31,0-.55-.11-.74-.32-.18-.21-.25-.48-.18-.78l4.53-36.77c0-.31-.12-.46-.37-.46h-2.68c-.68,0-1.01-.37-1.01-1.11l.92-6.93c.06-.31.2-.57.42-.79.22-.22.48-.32.79-.32h2.68c.31,0,.46-.15.46-.46l.37-2.5c.68-5.54,2.51-9.38,5.5-11.5,2.99-2.12,7.41-3.12,13.26-3h.37c.31,0,.55.11.74.32s.24.48.18.78l-.92,7.39c-.06.31-.22.57-.46.79-.25.22-.52.32-.83.32h-.18c-3.02.06-4.77,1.97-5.27,5.73l-.18,1.66c0,.31.12.46.37.46h4.99c.31,0,.55.11.74.32Zm.18,46.84c-.18-.21-.25-.48-.18-.78l5.54-45.27c.06-.31.2-.57.41-.79.22-.22.48-.32.79-.32h10.53c.31,0,.55.11.74.32.19.22.25.48.19.79l-5.54,45.27c-.06.31-.2.57-.42.78-.22.22-.48.32-.78.32h-10.53c-.31,0-.55-.11-.74-.32Zm7.85-54.28c-1.17-1.17-1.75-2.65-1.75-4.43,0-2.46.77-4.48,2.31-6.05,1.54-1.57,3.45-2.36,5.73-2.36,1.91,0,3.42.55,4.53,1.66s1.66,2.59,1.66,4.43c0,2.34-.78,4.34-2.36,6.01-1.57,1.66-3.43,2.49-5.59,2.49-1.85,0-3.36-.58-4.53-1.75Z"/>
      <path class="cls-1" d="m97.97,209.64c-.22.22-.48.32-.78.32h-5.08c-.13,0-.23.05-.32.14s-.14.2-.14.32l-2.68,21.99c-.06.31-.09.74-.09,1.29,0,1.29.29,2.19.88,2.68.59.49,1.43.71,2.54.65h.65c.31,0,.55.11.74.32.19.22.25.48.19.79l-1.11,9.05c-.06.31-.2.57-.42.78s-.48.32-.79.32h-3.6c-3.94,0-6.93-.6-8.96-1.8-2.03-1.2-3.05-3.47-3.05-6.79,0-.43.06-1.2.18-2.31l3.33-26.98c0-.31-.13-.46-.37-.46h-2.95c-.31,0-.56-.11-.74-.32-.18-.21-.25-.48-.18-.78l.83-6.93c.06-.31.2-.57.41-.79.22-.22.48-.32.79-.32h2.96c.31,0,.46-.15.46-.46l1.29-10.26c.06-.31.2-.57.42-.78s.48-.32.78-.32h10.07c.31,0,.55.11.74.32.18.22.24.48.18.78l-1.29,10.26c0,.31.15.46.46.46h4.99c.31,0,.55.11.74.32.18.22.24.48.18.79l-.83,6.93c-.06.31-.2.57-.42.78Z"/>
      <path class="cls-1" d="m136.5,203.18c1.75,2.06,2.63,5.04,2.63,8.92,0,1.23-.09,2.5-.28,3.79l-3.79,31.32c-.06.31-.2.57-.41.78s-.48.32-.79.32h-10.53c-.31,0-.55-.11-.74-.32-.19-.21-.25-.48-.19-.78l3.7-30.31c.06-.31.09-.77.09-1.38,0-2.83-1.14-4.25-3.42-4.25-1.36,0-2.46.51-3.33,1.52-.86,1.02-1.42,2.45-1.66,4.3l-3.7,30.12c-.06.31-.2.57-.41.78s-.48.32-.79.32h-10.53c-.31,0-.55-.11-.74-.32-.19-.21-.25-.48-.19-.78l5.54-45.27c.06-.31.2-.57.42-.79s.48-.32.78-.32h10.53c.31,0,.55.11.74.32.18.22.24.48.18.79l-.18,1.75v.09c0,.13.08.17.23.14.15-.03.32-.14.51-.32,2.28-2.34,5.08-3.51,8.41-3.51,3.51,0,6.14,1.03,7.9,3.1Z"/>
      <path class="cls-1" d="m179.37,228.31c-.22.22-.48.32-.78.32h-19.77c-.12,0-.23.05-.32.14s-.14.2-.14.32l-.46,3.42c-.19,1.54.08,2.82.78,3.83.71,1.02,1.68,1.52,2.91,1.52,1.11,0,2.08-.38,2.91-1.15.83-.77,1.43-1.74,1.8-2.91.24-.62.68-.92,1.29-.92l10.26.55c.31,0,.54.11.69.32.15.22.2.51.14.88-.99,4.74-3.02,8.33-6.1,10.76-3.08,2.43-7.21,3.65-12.38,3.65-4.87,0-8.63-1.14-11.27-3.42-2.65-2.28-3.97-5.48-3.97-9.61,0-.55.06-1.39.18-2.5l2.22-17.92c.55-4.68,2.52-8.44,5.91-11.27,3.39-2.83,7.7-4.25,12.93-4.25,4.81,0,8.55,1.19,11.23,3.56,2.68,2.37,4.02,5.59,4.02,9.65,0,.43-.06,1.2-.18,2.31l-1.48,11.92c-.06.31-.2.57-.42.79Zm-17.78-15.57c-.92.99-1.48,2.25-1.66,3.79l-.46,3.6c0,.31.12.46.37.46h7.76c.12,0,.23-.05.32-.14.09-.09.14-.2.14-.32l.46-3.6c.18-1.54-.08-2.8-.79-3.79-.71-.98-1.68-1.48-2.91-1.48s-2.31.5-3.23,1.48Z"/>
      <path class="cls-1" d="m189.9,245.77c-2.68-2.12-4.02-5.03-4.02-8.73,0-.8.03-1.42.09-1.85l.09-.65c.06-.31.2-.57.42-.79.21-.22.48-.32.78-.32h9.89c.31,0,.55.11.74.32.19.22.25.48.19.79v.28c-.19,1.29.12,2.36.92,3.19.8.83,1.85,1.25,3.14,1.25s2.34-.42,3.14-1.25c.8-.83,1.2-1.86,1.2-3.1,0-1.17-.52-2.11-1.57-2.82-1.05-.71-2.22-1.31-3.51-1.8-1.29-.49-2.16-.83-2.59-1.02-2.83-1.11-5.21-2.62-7.11-4.53-1.91-1.91-2.87-4.59-2.87-8.04,0-.86.03-1.54.09-2.03.55-4.49,2.43-8.04,5.64-10.62,3.2-2.59,7.18-3.88,11.92-3.88s8.12,1.14,10.67,3.42c2.56,2.28,3.83,5.39,3.83,9.33,0,.55-.06,1.32-.18,2.31-.06.31-.2.57-.42.78-.22.22-.48.32-.78.32h-9.61c-.31,0-.55-.11-.74-.32-.18-.21-.25-.48-.18-.78l.09-.74c.12-1.23-.14-2.23-.79-3-.65-.77-1.56-1.15-2.73-1.15-1.42,0-2.53.48-3.33,1.43-.8.96-1.2,2.05-1.2,3.28,0,1.36.54,2.4,1.62,3.14,1.08.74,2.75,1.57,5.03,2.49,3.45,1.36,6.24,2.93,8.36,4.71,2.12,1.79,3.19,4.4,3.19,7.85,0,4.8-1.71,8.63-5.13,11.46-3.42,2.83-7.84,4.25-13.26,4.25-4.68,0-8.36-1.06-11.04-3.19Z"/>
      <path class="cls-1" d="m228.53,245.77c-2.68-2.12-4.02-5.03-4.02-8.73,0-.8.03-1.42.09-1.85l.09-.65c.06-.31.2-.57.42-.79.21-.22.48-.32.78-.32h9.89c.31,0,.55.11.74.32.19.22.25.48.19.79v.28c-.19,1.29.12,2.36.92,3.19.8.83,1.85,1.25,3.14,1.25s2.34-.42,3.14-1.25c.8-.83,1.2-1.86,1.2-3.1,0-1.17-.52-2.11-1.57-2.82-1.05-.71-2.22-1.31-3.51-1.8-1.29-.49-2.16-.83-2.59-1.02-2.83-1.11-5.21-2.62-7.11-4.53-1.91-1.91-2.87-4.59-2.87-8.04,0-.86.03-1.54.09-2.03.55-4.49,2.43-8.04,5.64-10.62,3.2-2.59,7.18-3.88,11.92-3.88s8.12,1.14,10.67,3.42c2.56,2.28,3.83,5.39,3.83,9.33,0,.55-.06,1.32-.18,2.31-.06.31-.2.57-.42.78-.22.22-.48.32-.78.32h-9.61c-.31,0-.55-.11-.74-.32-.18-.21-.25-.48-.18-.78l.09-.74c.12-1.23-.14-2.23-.79-3-.65-.77-1.56-1.15-2.73-1.15-1.42,0-2.53.48-3.33,1.43-.8.96-1.2,2.05-1.2,3.28,0,1.36.54,2.4,1.62,3.14,1.08.74,2.75,1.57,5.03,2.49,3.45,1.36,6.24,2.93,8.36,4.71,2.12,1.79,3.19,4.4,3.19,7.85,0,4.8-1.71,8.63-5.13,11.46-3.42,2.83-7.84,4.25-13.26,4.25-4.68,0-8.36-1.06-11.04-3.19Z"/>
    </g>
  </g>
  <g>
    <g>
      <path class="cls-2" d="m81.42,152.7l-.68-16.29c.11-.23.06-.43-.17-.59s-.45-.25-.68-.25h-20.87c-.68,0-1.02.28-1.02.85l-4.75,16.29c-.34,1.25-1.13,1.87-2.38,1.87h-19.18c-1.36,0-1.81-.73-1.36-2.21l38.18-114.72c.34-1.24,1.13-1.87,2.38-1.87h22.23c1.13,0,1.81.62,2.03,1.87l9.84,114.72v.51c0,1.13-.62,1.7-1.87,1.7h-19.85c-1.25,0-1.87-.62-1.87-1.87Zm-17.14-35.64h14.76c.56,0,.85-.28.85-.85l-2.04-46.33c-.11-.34-.28-.51-.51-.51s-.4.17-.51.51l-13.07,46.33c-.23.57-.06.85.51.85Z"/>
      <path class="cls-2" d="m177.56,145.91c-6.85,5.77-15.25,8.65-25.2,8.65h-31.05c-.57,0-1.02-.2-1.36-.59-.34-.39-.45-.87-.34-1.44l14.08-114.72c.11-.57.37-1.04.77-1.44.39-.4.87-.59,1.44-.59h27.49c9.95,0,17.68,2.24,23.16,6.7,5.49,4.47,8.23,11.12,8.23,19.94,0,1.13-.11,3.05-.34,5.77-1.36,11.09-6.11,19.23-14.26,24.44-.45.34-.51.68-.17,1.02,6.56,5.2,9.84,12.62,9.84,22.23,0,1.02-.11,2.77-.34,5.26-1.13,10.75-5.12,19.01-11.97,24.78Zm-15.36-16.12c2.38-2.72,3.9-6.56,4.58-11.54.11-.79.17-1.98.17-3.56,0-3.96-.85-7.07-2.54-9.33s-4.07-3.4-7.13-3.4h-7.47c-.45,0-.79.28-1.02.85l-3.56,30.21c-.23.57,0,.85.68.85h7.3c3.62,0,6.62-1.36,8.99-4.07Zm-7.64-72.63l-3.39,26.64c0,.57.22.85.68.85h5.94c4.3,0,7.66-1.53,10.1-4.58,2.43-3.05,3.65-7.3,3.65-12.73,0-3.62-.88-6.36-2.63-8.23-1.76-1.87-4.27-2.8-7.55-2.8h-5.94c-.57,0-.85.28-.85.85Z"/>
      <path class="cls-2" d="m211.41,148.37c-5.2-5.03-7.8-11.85-7.8-20.45,0-1.13.11-2.94.34-5.43l6.79-54.98c1.13-10.07,5.06-18.1,11.79-24.1,6.73-6,15.08-8.99,25.03-8.99,9.05,0,16.18,2.52,21.38,7.55,5.2,5.03,7.81,11.85,7.81,20.45,0,1.13-.11,2.83-.34,5.09l-.34,1.87c-.11.57-.37,1.05-.77,1.44-.4.4-.88.59-1.44.59l-19.35.85c-1.25,0-1.81-.62-1.7-1.87l.51-4.41c.11-.45.17-1.13.17-2.03,0-2.72-.76-4.89-2.29-6.54-1.53-1.64-3.59-2.46-6.19-2.46-2.83,0-5.26,1.02-7.3,3.05s-3.29,4.7-3.73,7.98l-7.13,58.55c-.11.45-.17,1.08-.17,1.87,0,2.72.77,4.9,2.29,6.54,1.52,1.64,3.53,2.46,6.02,2.46,2.94,0,5.43-.99,7.47-2.97,2.04-1.98,3.28-4.61,3.73-7.89l.51-4.58c.11-.56.36-1.04.76-1.44.4-.4.88-.59,1.44-.59l19.18.85c.56,0,1.02.2,1.36.59.34.4.45.88.34,1.44l-.17,1.7c-1.25,10.18-5.26,18.3-12.05,24.35-6.79,6.05-15.1,9.08-24.95,9.08-8.94,0-16.01-2.52-21.21-7.55Z"/>
    </g>
    <g>
      <path class="cls-2" d="m62.35,201.14c.18.22.24.48.18.79l-.83,6.93c-.06.31-.2.57-.42.78-.22.22-.48.32-.78.32h-4.99c-.31,0-.46.15-.46.46l-4.53,36.77c-.06.31-.2.57-.42.78-.22.22-.48.32-.79.32h-10.44c-.31,0-.55-.11-.74-.32-.19-.21-.25-.48-.19-.78l4.53-36.77c0-.31-.13-.46-.37-.46h-2.68c-.68,0-1.02-.37-1.02-1.11l.92-6.93c.06-.31.2-.57.42-.79.21-.22.48-.32.78-.32h2.68c.31,0,.46-.15.46-.46l.37-2.5c.68-5.54,2.51-9.38,5.5-11.5,2.99-2.12,7.41-3.12,13.26-3h.37c.31,0,.55.11.74.32s.25.48.18.78l-.92,7.39c-.06.31-.22.57-.46.79-.25.22-.52.32-.83.32h-.18c-3.02.06-4.77,1.97-5.27,5.73l-.18,1.66c0,.31.12.46.37.46h4.99c.31,0,.55.11.74.32Zm.18,46.84c-.18-.21-.25-.48-.18-.78l5.54-45.27c.06-.31.2-.57.42-.79.21-.22.48-.32.78-.32h10.53c.31,0,.56.11.74.32.18.22.24.48.18.79l-5.54,45.27c-.06.31-.2.57-.42.78s-.48.32-.79.32h-10.53c-.31,0-.55-.11-.74-.32Zm7.85-54.28c-1.17-1.17-1.75-2.65-1.75-4.43,0-2.46.77-4.48,2.31-6.05,1.54-1.57,3.45-2.36,5.73-2.36,1.91,0,3.42.55,4.53,1.66,1.11,1.11,1.66,2.59,1.66,4.43,0,2.34-.78,4.34-2.36,6.01-1.57,1.66-3.43,2.49-5.59,2.49-1.85,0-3.36-.58-4.53-1.75Z"/>
      <path class="cls-2" d="m109.7,209.64c-.22.22-.48.32-.78.32h-5.08c-.13,0-.23.05-.32.14s-.14.2-.14.32l-2.68,21.99c-.06.31-.09.74-.09,1.29,0,1.29.29,2.19.88,2.68.59.49,1.43.71,2.54.65h.65c.31,0,.55.11.74.32.19.22.25.48.19.79l-1.11,9.05c-.06.31-.2.57-.42.78s-.48.32-.79.32h-3.6c-3.94,0-6.93-.6-8.96-1.8-2.03-1.2-3.05-3.47-3.05-6.79,0-.43.06-1.2.18-2.31l3.33-26.98c0-.31-.13-.46-.37-.46h-2.95c-.31,0-.56-.11-.74-.32-.18-.21-.25-.48-.18-.78l.83-6.93c.06-.31.2-.57.41-.79.22-.22.48-.32.79-.32h2.96c.31,0,.46-.15.46-.46l1.29-10.26c.06-.31.2-.57.42-.78s.48-.32.78-.32h10.07c.31,0,.55.11.74.32.18.22.24.48.18.78l-1.29,10.26c0,.31.15.46.46.46h4.99c.31,0,.55.11.74.32.18.22.24.48.18.79l-.83,6.93c-.06.31-.2.57-.42.78Z"/>
      <path class="cls-2" d="m148.23,203.18c1.75,2.06,2.63,5.04,2.63,8.92,0,1.23-.09,2.5-.28,3.79l-3.79,31.32c-.06.31-.2.57-.42.78s-.48.32-.78.32h-10.53c-.31,0-.56-.11-.74-.32-.18-.21-.25-.48-.18-.78l3.69-30.31c.06-.31.1-.77.1-1.38,0-2.83-1.14-4.25-3.42-4.25-1.36,0-2.46.51-3.33,1.52s-1.42,2.45-1.66,4.3l-3.69,30.12c-.06.31-.2.57-.42.78s-.48.32-.78.32h-10.53c-.31,0-.56-.11-.74-.32-.18-.21-.25-.48-.18-.78l5.54-45.27c.06-.31.2-.57.42-.79.22-.22.48-.32.78-.32h10.53c.31,0,.56.11.74.32.18.22.25.48.18.79l-.18,1.75v.09c0,.13.08.17.23.14.15-.03.32-.14.51-.32,2.28-2.34,5.08-3.51,8.41-3.51,3.51,0,6.14,1.03,7.9,3.1Z"/>
      <path class="cls-2" d="m191.1,228.31c-.21.22-.48.32-.78.32h-19.77c-.12,0-.23.05-.32.14s-.14.2-.14.32l-.46,3.42c-.19,1.54.07,2.82.78,3.83.71,1.02,1.68,1.52,2.91,1.52,1.11,0,2.08-.38,2.91-1.15.83-.77,1.43-1.74,1.8-2.91.24-.62.67-.92,1.29-.92l10.26.55c.31,0,.54.11.69.32.15.22.2.51.14.88-.98,4.74-3.02,8.33-6.1,10.76-3.08,2.43-7.21,3.65-12.38,3.65-4.87,0-8.63-1.14-11.27-3.42-2.65-2.28-3.97-5.48-3.97-9.61,0-.55.06-1.39.18-2.5l2.22-17.92c.55-4.68,2.52-8.44,5.91-11.27,3.39-2.83,7.7-4.25,12.93-4.25,4.81,0,8.55,1.19,11.23,3.56,2.68,2.37,4.02,5.59,4.02,9.65,0,.43-.06,1.2-.18,2.31l-1.48,11.92c-.06.31-.2.57-.42.79Zm-17.78-15.57c-.92.99-1.48,2.25-1.66,3.79l-.46,3.6c0,.31.12.46.37.46h7.76c.12,0,.23-.05.32-.14.09-.09.14-.2.14-.32l.46-3.6c.18-1.54-.08-2.8-.79-3.79-.71-.98-1.68-1.48-2.91-1.48s-2.31.5-3.23,1.48Z"/>
      <path class="cls-2" d="m201.63,245.77c-2.68-2.12-4.02-5.03-4.02-8.73,0-.8.03-1.42.09-1.85l.09-.65c.06-.31.2-.57.42-.79.21-.22.48-.32.78-.32h9.89c.31,0,.55.11.74.32.19.22.25.48.19.79v.28c-.19,1.29.12,2.36.92,3.19.8.83,1.85,1.25,3.14,1.25s2.34-.42,3.14-1.25c.8-.83,1.2-1.86,1.2-3.1,0-1.17-.53-2.11-1.57-2.82-1.05-.71-2.22-1.31-3.51-1.8s-2.16-.83-2.59-1.02c-2.83-1.11-5.2-2.62-7.11-4.53-1.91-1.91-2.87-4.59-2.87-8.04,0-.86.03-1.54.09-2.03.55-4.49,2.43-8.04,5.63-10.62s7.18-3.88,11.92-3.88,8.11,1.14,10.67,3.42c2.56,2.28,3.83,5.39,3.83,9.33,0,.55-.06,1.32-.18,2.31-.06.31-.2.57-.42.78-.21.22-.48.32-.78.32h-9.61c-.31,0-.56-.11-.74-.32-.18-.21-.25-.48-.18-.78l.09-.74c.13-1.23-.14-2.23-.78-3-.65-.77-1.56-1.15-2.73-1.15-1.42,0-2.53.48-3.33,1.43-.8.96-1.2,2.05-1.2,3.28,0,1.36.54,2.4,1.62,3.14,1.08.74,2.75,1.57,5.03,2.49,3.45,1.36,6.23,2.93,8.36,4.71,2.12,1.79,3.19,4.4,3.19,7.85,0,4.8-1.71,8.63-5.13,11.46-3.42,2.83-7.84,4.25-13.26,4.25-4.68,0-8.36-1.06-11.04-3.19Z"/>
      <path class="cls-2" d="m240.26,245.77c-2.68-2.12-4.02-5.03-4.02-8.73,0-.8.03-1.42.09-1.85l.09-.65c.06-.31.2-.57.42-.79.21-.22.48-.32.78-.32h9.88c.31,0,.56.11.74.32.18.22.25.48.18.79v.28c-.18,1.29.12,2.36.92,3.19.8.83,1.85,1.25,3.14,1.25s2.34-.42,3.14-1.25c.8-.83,1.2-1.86,1.2-3.1,0-1.17-.52-2.11-1.57-2.82-1.05-.71-2.22-1.31-3.51-1.8-1.29-.49-2.15-.83-2.59-1.02-2.84-1.11-5.21-2.62-7.12-4.53-1.91-1.91-2.87-4.59-2.87-8.04,0-.86.03-1.54.09-2.03.56-4.49,2.43-8.04,5.64-10.62,3.2-2.59,7.17-3.88,11.92-3.88s8.12,1.14,10.67,3.42c2.56,2.28,3.83,5.39,3.83,9.33,0,.55-.06,1.32-.18,2.31-.06.31-.2.57-.42.78s-.48.32-.78.32h-9.61c-.31,0-.55-.11-.74-.32-.18-.21-.25-.48-.18-.78l.09-.74c.12-1.23-.14-2.23-.79-3-.64-.77-1.55-1.15-2.73-1.15-1.42,0-2.53.48-3.33,1.43-.8.96-1.2,2.05-1.2,3.28,0,1.36.54,2.4,1.62,3.14,1.08.74,2.75,1.57,5.03,2.49,3.45,1.36,6.24,2.93,8.36,4.71,2.12,1.79,3.19,4.4,3.19,7.85,0,4.8-1.71,8.63-5.13,11.46-3.42,2.83-7.84,4.25-13.26,4.25-4.68,0-8.36-1.06-11.04-3.19Z"/>
    </g>
  </g>
</svg>