<?xml version="1.0" encoding="UTF-8"?>
<svg id="Layer_1" data-name="Layer 1" xmlns="http://www.w3.org/2000/svg" viewBox="0 0 283.46 283.46">
  <defs>
    <style>
      .cls-1 {
        fill: #4eb1a6;
      }

      .cls-1, .cls-2, .cls-3 {
        stroke-width: 0px;
      }

      .cls-2 {
        fill: #f9f7c3;
      }

      .cls-3 {
        fill: #1a936f;
      }
    </style>
  </defs>
  <g>
    <path class="cls-3" d="m56.73,200.11l-.69-16.53c.11-.23.06-.43-.17-.6s-.46-.26-.69-.26h-21.18c-.69,0-1.03.29-1.03.86l-4.82,16.53c-.35,1.27-1.15,1.89-2.41,1.89H6.26c-1.38,0-1.84-.75-1.38-2.24l38.75-116.42c.34-1.26,1.15-1.89,2.41-1.89h22.56c1.15,0,1.84.63,2.06,1.89l9.99,116.42v.52c0,1.15-.63,1.72-1.89,1.72h-20.15c-1.27,0-1.9-.63-1.9-1.89Zm-17.39-36.17h14.98c.57,0,.86-.29.86-.86l-2.07-47.02c-.12-.34-.29-.52-.52-.52s-.4.17-.52.52l-13.26,47.02c-.23.58-.06.86.52.86Z"/>
    <path class="cls-3" d="m154.29,193.23c-6.95,5.85-15.47,8.78-25.58,8.78h-31.52c-.58,0-1.03-.2-1.38-.6-.34-.4-.46-.89-.34-1.46l14.29-116.42c.11-.57.37-1.06.78-1.46s.89-.6,1.46-.6h27.9c10.1,0,17.94,2.27,23.51,6.8,5.57,4.54,8.35,11.28,8.35,20.24,0,1.15-.12,3.1-.34,5.86-1.38,11.25-6.2,19.52-14.47,24.8-.46.34-.52.69-.17,1.03,6.66,5.28,9.99,12.8,9.99,22.56,0,1.03-.12,2.81-.34,5.34-1.15,10.91-5.2,19.29-12.14,25.15Zm-15.59-16.36c2.41-2.76,3.96-6.66,4.65-11.71.11-.8.17-2.01.17-3.62,0-4.02-.86-7.17-2.58-9.47-1.72-2.3-4.13-3.45-7.23-3.45h-7.58c-.46,0-.8.29-1.03.86l-3.62,30.66c-.23.58,0,.86.69.86h7.41c3.67,0,6.72-1.38,9.13-4.13Zm-7.75-73.71l-3.44,27.04c0,.58.23.86.69.86h6.03c4.36,0,7.78-1.55,10.25-4.65,2.47-3.1,3.7-7.41,3.7-12.92,0-3.67-.89-6.46-2.67-8.35-1.78-1.89-4.33-2.84-7.66-2.84h-6.03c-.58,0-.86.29-.86.86Z"/>
    <path class="cls-3" d="m188.64,195.72c-5.28-5.11-7.92-12.03-7.92-20.75,0-1.15.11-2.98.34-5.51l6.89-55.8c1.15-10.22,5.14-18.37,11.97-24.46,6.83-6.08,15.3-9.13,25.4-9.13,9.18,0,16.42,2.56,21.7,7.66,5.28,5.11,7.92,12.03,7.92,20.75,0,1.15-.12,2.87-.35,5.17l-.34,1.89c-.12.58-.37,1.06-.78,1.46s-.89.6-1.46.6l-19.63.86c-1.27,0-1.84-.63-1.72-1.89l.52-4.48c.11-.46.17-1.15.17-2.06,0-2.76-.78-4.97-2.33-6.63-1.55-1.66-3.65-2.5-6.28-2.5-2.87,0-5.34,1.03-7.41,3.1s-3.33,4.77-3.79,8.09l-7.23,59.42c-.12.46-.17,1.09-.17,1.89,0,2.76.78,4.97,2.33,6.63,1.55,1.67,3.59,2.5,6.11,2.5,2.98,0,5.51-1,7.58-3.01,2.07-2.01,3.33-4.68,3.79-8.01l.52-4.65c.11-.57.37-1.06.78-1.46s.89-.6,1.46-.6l19.46.86c.57,0,1.03.2,1.38.6.34.4.46.89.34,1.46l-.17,1.72c-1.27,10.33-5.34,18.57-12.23,24.71-6.89,6.14-15.33,9.21-25.32,9.21-9.07,0-16.25-2.55-21.53-7.66Z"/>
  </g>
  <g>
    <path class="cls-1" d="m68.63,200.11l-.69-16.53c.11-.23.06-.43-.17-.6s-.46-.26-.69-.26h-21.18c-.69,0-1.03.29-1.03.86l-4.82,16.53c-.35,1.27-1.15,1.89-2.41,1.89h-19.46c-1.38,0-1.84-.75-1.38-2.24l38.75-116.42c.34-1.26,1.15-1.89,2.41-1.89h22.56c1.15,0,1.84.63,2.06,1.89l9.99,116.42v.52c0,1.15-.63,1.72-1.89,1.72h-20.15c-1.27,0-1.89-.63-1.89-1.89Zm-17.39-36.17h14.98c.57,0,.86-.29.86-.86l-2.07-47.02c-.12-.34-.29-.52-.52-.52s-.4.17-.52.52l-13.26,47.02c-.23.58-.06.86.52.86Z"/>
    <path class="cls-1" d="m166.19,193.23c-6.95,5.85-15.47,8.78-25.58,8.78h-31.52c-.58,0-1.03-.2-1.38-.6-.34-.4-.46-.89-.34-1.46l14.29-116.42c.11-.57.37-1.06.78-1.46s.89-.6,1.46-.6h27.9c10.1,0,17.94,2.27,23.51,6.8,5.57,4.54,8.35,11.28,8.35,20.24,0,1.15-.12,3.1-.34,5.86-1.38,11.25-6.2,19.52-14.47,24.8-.46.34-.52.69-.17,1.03,6.66,5.28,9.99,12.8,9.99,22.56,0,1.03-.12,2.81-.34,5.34-1.15,10.91-5.2,19.29-12.14,25.15Zm-15.59-16.36c2.41-2.76,3.96-6.66,4.65-11.71.11-.8.17-2.01.17-3.62,0-4.02-.86-7.17-2.58-9.47-1.72-2.3-4.13-3.45-7.23-3.45h-7.58c-.46,0-.8.29-1.03.86l-3.62,30.66c-.23.58,0,.86.69.86h7.41c3.67,0,6.72-1.38,9.13-4.13Zm-7.75-73.71l-3.44,27.04c0,.58.23.86.69.86h6.03c4.36,0,7.78-1.55,10.25-4.65,2.47-3.1,3.7-7.41,3.7-12.92,0-3.67-.89-6.46-2.67-8.35-1.78-1.89-4.33-2.84-7.66-2.84h-6.03c-.58,0-.86.29-.86.86Z"/>
    <path class="cls-1" d="m200.54,195.72c-5.28-5.11-7.92-12.03-7.92-20.75,0-1.15.11-2.98.34-5.51l6.89-55.8c1.15-10.22,5.14-18.37,11.97-24.46,6.83-6.08,15.3-9.13,25.4-9.13,9.18,0,16.42,2.56,21.7,7.66,5.28,5.11,7.92,12.03,7.92,20.75,0,1.15-.12,2.87-.35,5.17l-.34,1.89c-.12.58-.37,1.06-.78,1.46s-.89.6-1.46.6l-19.63.86c-1.27,0-1.84-.63-1.72-1.89l.52-4.48c.11-.46.17-1.15.17-2.06,0-2.76-.78-4.97-2.33-6.63-1.55-1.66-3.65-2.5-6.28-2.5-2.87,0-5.34,1.03-7.41,3.1s-3.33,4.77-3.79,8.09l-7.23,59.42c-.12.46-.17,1.09-.17,1.89,0,2.76.78,4.97,2.33,6.63,1.55,1.67,3.59,2.5,6.11,2.5,2.98,0,5.51-1,7.58-3.01,2.07-2.01,3.33-4.68,3.79-8.01l.52-4.65c.11-.57.37-1.06.78-1.46s.89-.6,1.46-.6l19.46.86c.57,0,1.03.2,1.38.6.34.4.46.89.34,1.46l-.17,1.72c-1.27,10.33-5.34,18.57-12.23,24.71-6.89,6.14-15.33,9.21-25.32,9.21-9.07,0-16.25-2.55-21.53-7.66Z"/>
  </g>
  <g>
    <path class="cls-2" d="m80.53,200.11l-.69-16.53c.11-.23.06-.43-.17-.6-.23-.17-.46-.26-.69-.26h-21.18c-.69,0-1.03.29-1.03.86l-4.82,16.53c-.34,1.27-1.15,1.89-2.41,1.89h-19.46c-1.38,0-1.84-.75-1.38-2.24l38.75-116.42c.34-1.26,1.15-1.89,2.41-1.89h22.56c1.15,0,1.84.63,2.06,1.89l9.99,116.42v.52c0,1.15-.63,1.72-1.89,1.72h-20.15c-1.27,0-1.89-.63-1.89-1.89Zm-17.39-36.17h14.98c.57,0,.86-.29.86-.86l-2.07-47.02c-.12-.34-.29-.52-.52-.52s-.4.17-.52.52l-13.26,47.02c-.23.58-.06.86.52.86Z"/>
    <path class="cls-2" d="m178.09,193.23c-6.95,5.85-15.47,8.78-25.58,8.78h-31.52c-.58,0-1.03-.2-1.38-.6-.34-.4-.46-.89-.34-1.46l14.29-116.42c.11-.57.37-1.06.78-1.46s.89-.6,1.46-.6h27.9c10.1,0,17.94,2.27,23.51,6.8,5.57,4.54,8.35,11.28,8.35,20.24,0,1.15-.12,3.1-.34,5.86-1.38,11.25-6.2,19.52-14.47,24.8-.46.34-.52.69-.17,1.03,6.66,5.28,9.99,12.8,9.99,22.56,0,1.03-.12,2.81-.34,5.34-1.15,10.91-5.2,19.29-12.14,25.15Zm-15.59-16.36c2.41-2.76,3.96-6.66,4.65-11.71.11-.8.17-2.01.17-3.62,0-4.02-.86-7.17-2.58-9.47-1.72-2.3-4.13-3.45-7.23-3.45h-7.58c-.46,0-.8.29-1.03.86l-3.62,30.66c-.23.58,0,.86.69.86h7.41c3.67,0,6.72-1.38,9.13-4.13Zm-7.75-73.71l-3.44,27.04c0,.58.23.86.69.86h6.03c4.36,0,7.78-1.55,10.25-4.65,2.47-3.1,3.7-7.41,3.7-12.92,0-3.67-.89-6.46-2.67-8.35-1.78-1.89-4.33-2.84-7.66-2.84h-6.03c-.58,0-.86.29-.86.86Z"/>
    <path class="cls-2" d="m212.44,195.72c-5.28-5.11-7.92-12.03-7.92-20.75,0-1.15.11-2.98.34-5.51l6.89-55.8c1.15-10.22,5.14-18.37,11.97-24.46,6.83-6.08,15.3-9.13,25.4-9.13,9.18,0,16.42,2.56,21.7,7.66,5.28,5.11,7.92,12.03,7.92,20.75,0,1.15-.12,2.87-.35,5.17l-.34,1.89c-.12.58-.37,1.06-.78,1.46s-.89.6-1.46.6l-19.63.86c-1.27,0-1.84-.63-1.72-1.89l.52-4.48c.11-.46.17-1.15.17-2.06,0-2.76-.78-4.97-2.33-6.63-1.55-1.66-3.65-2.5-6.28-2.5-2.87,0-5.34,1.03-7.41,3.1s-3.33,4.77-3.79,8.09l-7.23,59.42c-.12.46-.17,1.09-.17,1.89,0,2.76.78,4.97,2.33,6.63,1.55,1.67,3.59,2.5,6.11,2.5,2.98,0,5.51-1,7.58-3.01,2.07-2.01,3.33-4.68,3.79-8.01l.52-4.65c.11-.57.37-1.06.78-1.46s.89-.6,1.46-.6l19.46.86c.57,0,1.03.2,1.38.6.34.4.46.89.34,1.46l-.17,1.72c-1.27,10.33-5.34,18.57-12.23,24.71-6.89,6.14-15.33,9.21-25.32,9.21-9.07,0-16.25-2.55-21.53-7.66Z"/>
  </g>
</svg>